<svg width="239" height="397" viewBox="0 0 239 397" fill="none" xmlns="http://www.w3.org/2000/svg">
<path fill-rule="evenodd" clip-rule="evenodd" d="M117.698 36.4702C113.09 31.0615 109.972 24.433 110.493 17.0056C111.994 -4.39491 141.785 0.312922 147.579 11.114C153.374 21.9152 152.686 49.3131 145.196 51.2436C142.21 52.0134 135.847 50.1276 129.371 46.2244L133.436 74.9801H109.436L117.698 36.4702Z" fill="#B28B67"/>
<path fill-rule="evenodd" clip-rule="evenodd" d="M130.571 19.369C131.49 32.1662 133.92 38.5648 137.862 38.5648C143.775 38.5648 148.791 34.8112 151.386 34.8112C153.277 34.8112 152.855 37.1778 151.601 38.9326C150.567 40.3803 145.53 41.7757 145.53 44.0202C145.53 46.2646 149.509 44.5282 149.509 45.8593C149.509 48.0612 150.209 52.2011 146.387 52.2011C142.52 52.2011 131.431 50.7917 129.53 45.0516C128.304 41.3471 127.511 33.6707 127.152 22.0223C126.917 21.9945 126.678 21.9801 126.436 21.9801C123.122 21.9801 120.436 24.6664 120.436 27.9801C120.436 29.6623 121.128 31.1829 122.244 32.2723C120.855 34.2319 119.299 36.279 117.516 38.3913C110.818 34.3728 105.848 22.6091 112.397 11.3084C114.207 5.77235 118.304 2.81535 123.143 1.44232C127.064 -0.197471 131.133 -0.382359 134.568 0.60068C141.302 1.17827 147.315 3.23162 149.019 4.45106C149.019 10.8263 147.784 12.7178 137.233 12.5511C134.64 13.9202 132.647 16.278 130.571 19.369Z" fill="#191847"/>
<path fill-rule="evenodd" clip-rule="evenodd" d="M101.436 157.98L137.691 285.207L164.143 378.98H183.436L155.327 157.98H101.436Z" fill="#191847"/>
<path fill-rule="evenodd" clip-rule="evenodd" d="M91.7404 157.98C90.9018 223.554 88.0423 259.32 87.1618 265.278C86.2814 271.236 72.9682 309.136 47.2224 378.98H67.2087C99.9851 311.977 118.282 274.076 122.099 265.278C125.915 256.48 137.695 220.714 155.436 157.98H91.7404Z" fill="#2F3676"/>
<path fill-rule="evenodd" clip-rule="evenodd" d="M45.436 396.98L46.436 375.98H67.436C77.3936 382.98 90.3936 388.647 106.436 392.98V396.98H68.436L55.436 394.98V396.98H45.436Z" fill="#191847"/>
<path fill-rule="evenodd" clip-rule="evenodd" d="M161.436 396.98L162.436 375.98H183.436C193.394 382.98 206.394 388.647 222.436 392.98V396.98H184.436L171.436 394.98V396.98H161.436Z" fill="#191847"/>
<path fill-rule="evenodd" clip-rule="evenodd" d="M185.795 141.59L215.981 167.182C224.449 170.114 231.457 173.516 237.005 177.387C238.286 178.729 239.762 181.368 234.12 180.535C228.478 179.703 222.506 179.08 221.588 180.96C220.67 182.84 223.941 185.394 222.176 187.894C221 189.561 216.321 184.848 208.142 173.757L177.545 158.487L185.795 141.59ZM49.1031 130.516L66.8149 133.088C47.8029 174.338 37.6103 196.153 36.2372 198.534C33.1476 203.89 36.7811 213.22 38.2015 218.16C31.0231 220.232 33.3157 209.142 24.2391 211.908C15.9543 214.433 9.11766 220.157 0.912403 213.35C-0.0963857 212.514 -0.946166 209.777 2.26023 208.183C10.2485 204.211 21.9772 196.943 23.8004 194.264C26.2866 190.611 34.7208 169.362 49.1031 130.516Z" fill="#B28B67"/>
<path fill-rule="evenodd" clip-rule="evenodd" d="M123.131 58.3121L134.106 54.6828C148.994 91.873 171.197 127.856 208.293 158.25L199.12 174.077C166.517 154.872 135.655 139.953 123.131 111.135C118.928 101.463 122.788 69.8771 123.131 58.3121Z" fill="#C5CFD6"/>
<path fill-rule="evenodd" clip-rule="evenodd" d="M85.436 162.98C116.874 166.313 141.62 166.313 159.672 162.98C161.909 162.567 162.262 158.822 161.224 156.281C145.072 116.705 133.996 82.1717 133.996 54.6827C131.033 56.1769 125.846 56.4008 118.436 55.3545C98.5222 83.6828 89.3686 116.186 85.436 162.98Z" fill="#323337"/>
<path fill-rule="evenodd" clip-rule="evenodd" d="M113.485 52.9801H121.784C123.717 64.345 129.811 218.243 148.626 268.586H46.8212C49.0283 222.467 66.4388 167.068 84.0757 120.708C68.4803 134.98 54.8877 159.161 43.2978 193.253L24.2285 188.358C38.4071 127.261 67.5583 82.355 111.682 53.6391C111.778 53.4184 111.873 53.1987 111.967 52.9801H112.702C112.972 52.8066 113.243 52.6337 113.515 52.4614L113.485 52.9801Z" fill="#DDE3E9"/>
</svg>
