<svg width="306" height="332" viewBox="0 0 306 332" fill="none" xmlns="http://www.w3.org/2000/svg">
<path fill-rule="evenodd" clip-rule="evenodd" d="M177.738 36.4901C182.346 31.0814 185.464 24.4529 184.943 17.0255C183.442 -4.37502 153.651 0.332811 147.857 11.1339C142.062 21.9351 142.75 49.333 150.24 51.2635C153.226 52.0333 159.589 50.1475 166.065 46.2443L162 75H186L177.738 36.4901Z" fill="#B28B67"/>
<path fill-rule="evenodd" clip-rule="evenodd" d="M170.27 24.867C171.055 24.3276 171.993 24 173 24C175.761 24 178 26.4624 178 29C178 31.6399 176.753 33.681 174.973 34.547C175.924 36.4059 176.88 37.755 178 38C182.322 37.5628 188 26.8205 188 18C188 8.34551 180.318 0 166 0C153.131 0 148.251 5.30622 148 10C153.515 11.5156 163.151 12.0992 177 12V13L165 14L163 20C166.182 19.7625 168.456 21.945 170.27 24.867Z" fill="#191847"/>
<path d="M196 332C153.474 332 119 299.093 119 258.5C119 217.907 153.474 185 196 185C238.526 185 273 217.907 273 258.5C273 299.093 238.526 332 196 332Z" fill="#C5CFD6"/>
<path fill-rule="evenodd" clip-rule="evenodd" d="M50.4907 320.66C63.3035 292.302 72.5695 267.608 76.2889 254.58C82.6574 232.273 87.5021 212.643 88.7266 205.313C91.6466 187.832 66.2647 186.814 62.9097 195.502C57.8319 208.651 48.9671 251.853 38.3154 317.107L50.4907 320.66ZM199.112 231.664C187.356 227.017 146.188 212.475 126.333 208.361C120.627 207.179 115.097 206.081 109.898 205.088C94.444 202.138 86.4374 230.017 101.321 232.16C138.388 237.494 190.937 243.003 195.434 243.622C201.737 244.488 206.5 234.584 199.112 231.664Z" fill="#B28B67"/>
<path fill-rule="evenodd" clip-rule="evenodd" d="M100.413 197.416L164 165.047V158H156.438C94.9201 173.676 63.4846 183.722 62.1313 188.138C62.1168 188.185 62.1034 188.233 62.0913 188.281C62.0603 188.321 62.0299 188.362 62 188.403C49.8085 205.17 42.5071 287.027 40.1106 293.156L63.4723 296.641C72.4087 263.503 101 240.418 100.241 200.729C100.446 199.565 100.497 198.461 100.413 197.416Z" fill="#1F28CF"/>
<path fill-rule="evenodd" clip-rule="evenodd" d="M158.717 216.64C164.535 215.476 169.893 214.436 174.477 213.632C204.091 208.438 212.726 192.586 207.62 158H153.058C144.145 160.56 97.826 179.985 73.7934 190.316C57.8874 197.154 62.9015 221.804 71.909 228.219C71.958 228.613 72.1201 228.88 72.4087 229C120.863 249.083 159.195 238.545 172 241.912L177.923 223.228L158.717 216.64Z" fill="#2B44FF"/>
<path fill-rule="evenodd" clip-rule="evenodd" d="M195.092 228.694C198.267 228.997 200.521 229.474 201.853 230.124C203.474 230.915 205.707 232.338 208.554 234.395C207.636 236.275 199.395 253.173 183.829 285.088C178.831 284.282 176.851 282.375 177.888 279.367C178.925 276.359 179.761 273.849 180.397 271.835L181.385 243.15C181.404 242.598 181.867 242.166 182.419 242.185C182.428 242.185 182.438 242.186 182.447 242.186L186.86 242.463C189.367 240.434 191.021 238.598 191.823 236.955C192.474 235.62 192.833 233.514 192.902 230.637C192.929 229.533 193.846 228.659 194.95 228.685C194.997 228.686 195.045 228.689 195.092 228.694Z" fill="#E4E4E4"/>
<path fill-rule="evenodd" clip-rule="evenodd" d="M56.3219 315.402C57.4406 318.388 58 320.623 58 322.106C58 323.909 57.6996 326.54 57.0988 330C55.0068 330 36.2062 330 0.696945 330C-0.768738 325.154 0.0773382 322.539 3.23518 322.152C6.39301 321.766 9.01628 321.417 11.105 321.106L37.32 309.419C37.8244 309.194 38.4157 309.421 38.6405 309.925C38.6444 309.934 38.6481 309.942 38.6517 309.951L40.3368 314.039C43.2601 315.403 45.6356 316.085 47.4633 316.085C48.9483 316.085 50.999 315.485 53.6155 314.285C54.6196 313.825 55.8067 314.266 56.267 315.27C56.2869 315.313 56.3052 315.357 56.3219 315.402Z" fill="#E4E4E4"/>
<path fill-rule="evenodd" clip-rule="evenodd" d="M104.11 138.131L72.2122 161.555C63.5607 163.89 56.3327 166.794 50.5282 170.269C49.157 171.518 47.4998 174.048 53.1863 173.611C58.8728 173.174 64.8737 172.969 65.6583 174.909C66.443 176.849 63.0018 179.168 64.5879 181.785C65.6453 183.53 70.6407 179.155 79.5743 168.661L111.162 155.562L104.11 138.131ZM248.461 128.375L230.85 131.564C251.29 172.125 262.237 193.571 263.693 195.902C266.967 201.148 263.662 210.599 262.414 215.585C269.661 217.406 266.983 206.402 276.15 208.85C284.518 211.084 291.55 216.566 299.513 209.477C300.492 208.606 301.246 205.841 297.986 204.36C289.864 200.669 277.889 193.815 275.973 191.201C273.361 187.637 264.19 166.695 248.461 128.375Z" fill="#B28B67"/>
<path fill-rule="evenodd" clip-rule="evenodd" d="M96.6796 140.678C92.5755 140.383 88.1113 141.063 83.325 142.676C80.9698 143.469 79.7038 146.022 80.4974 148.377C80.9583 149.745 82.0125 150.745 83.2768 151.188C82.361 151.857 81.437 152.521 80.5049 153.182L88.5521 169.61C122.415 152.726 154.243 139.996 168.746 112.122C173.614 102.766 171.966 70.9883 172.431 59.4276L161.736 55.0414C146.827 85.8582 126.651 115.423 96.6796 140.678Z" fill="#69A1AC"/>
<path fill-rule="evenodd" clip-rule="evenodd" d="M210 166.91C178.562 170.363 153.816 170.363 135.764 166.91C133.527 166.482 133.625 156.84 134.663 154.207C150.815 113.202 161.44 83.184 161.44 54.7026C164.403 56.2507 169.59 56.4827 177 55.3986C196.914 84.7496 206.067 118.427 210 166.91Z" fill="#191847"/>
<path fill-rule="evenodd" clip-rule="evenodd" d="M215.841 171.758C216.909 170.753 217.466 169.247 217.192 167.696L216.671 164.741C216.318 162.739 214.692 161.281 212.772 161.053C212.437 159.553 212.147 158.063 211.908 156.583C209.89 144.087 213.339 131.834 213.177 119.802C229.257 133.522 243.682 157.211 256.452 190.871L275.339 185.313C274.618 182.636 273.872 179.992 273.1 177.38C275.279 176.142 277.827 170.466 275.993 169.516C274.1 168.535 272.094 167.845 269.982 167.438C252.665 115.279 224.345 77.133 185.024 53H181.546L173.652 53C177 97.2807 130.75 193.955 146.809 276.518C176.492 283.147 218.868 262.523 260.117 279C258.582 245.751 227.837 206.691 215.841 171.758Z" fill="#89C5CC"/>
<path fill-rule="evenodd" clip-rule="evenodd" d="M180.894 54L186.053 69.8654L175.664 81.759L185.053 91.1055L162.338 130L190.116 91.1832L180.894 81.759L190.116 71.2485L180.894 54Z" fill="black" fill-opacity="0.1"/>
<path fill-rule="evenodd" clip-rule="evenodd" d="M169 145C171.209 145 173 143.209 173 141C173 138.791 171.209 137 169 137C166.791 137 165 138.791 165 141C165 143.209 166.791 145 169 145ZM164 168C166.209 168 168 166.209 168 164C168 161.791 166.209 160 164 160C161.791 160 160 161.791 160 164C160 166.209 161.791 168 164 168ZM163 191C165.209 191 167 189.209 167 187C167 184.791 165.209 183 163 183C160.791 183 159 184.791 159 187C159 189.209 160.791 191 163 191Z" fill="black" fill-opacity="0.4"/>
</svg>
