<svg width="279" height="399" viewBox="0 0 279 399" fill="none" xmlns="http://www.w3.org/2000/svg">
<path fill-rule="evenodd" clip-rule="evenodd" d="M178.081 18.2902C181.528 30.9923 186.02 59.5438 181.436 64.0225H152.436C152.433 63.971 152.43 63.9197 152.427 63.8685C141.679 62.679 133.319 53.5658 133.319 42.5V21.5C133.319 9.62588 142.945 0 154.819 0H156.819C167.602 0 176.531 7.93854 178.081 18.2902Z" fill="#191847"/>
<path fill-rule="evenodd" clip-rule="evenodd" d="M144.581 38.4901C139.973 33.0814 136.854 26.4529 137.376 19.0255C138.877 -2.37502 168.667 2.33281 174.462 13.1339C180.257 23.9351 179.568 51.333 172.079 53.2635C169.092 54.0333 162.73 52.1475 156.254 48.2443L160.319 77H136.319L144.581 38.4901Z" fill="#D4A181"/>
<path fill-rule="evenodd" clip-rule="evenodd" d="M151.069 34.8748C152.175 46.7528 151.732 60.3173 148.436 63.5371H119.436C117.82 35.4635 133.436 46.3349 133.436 19.9028C134.41 18.9515 135.33 18.01 136.24 17.1981L136.208 16.4207C141.229 6.14023 147.6 1 155.32 1C166.9 1 170.555 6.38832 173.668 10.9631C171.34 18.9482 162.309 20.1322 154.285 25.1095C153.339 24.341 152.133 23.8804 150.819 23.8804C147.781 23.8804 145.319 26.3428 145.319 29.3804C145.319 32.418 147.781 34.8804 150.819 34.8804C150.903 34.8804 150.986 34.8785 151.069 34.8748Z" fill="#191847"/>
<path fill-rule="evenodd" clip-rule="evenodd" d="M97.7266 258.088C121.716 264.798 142.413 268.153 159.818 268.153C177.224 268.153 193.39 262.986 208.319 252.653C184.843 245.766 165.51 242.323 150.319 242.323C135.128 242.323 117.597 247.578 97.7266 258.088Z" fill="#1F28CF"/>
<path fill-rule="evenodd" clip-rule="evenodd" d="M180.586 277.824C180.354 277.477 180.159 277.098 180.004 276.689C176.797 268.208 125.436 176.726 120.319 160H178.145C182.035 172.717 199.546 252.52 202.01 268.442C209.785 293.557 225.794 374.895 227.838 380.53C229.988 386.458 217.891 392.633 214.668 385.346C209.539 373.75 197.317 341.665 191.876 322.074C186.775 303.708 182.621 287.184 180.586 277.824Z" fill="#BA8B72"/>
<path fill-rule="evenodd" clip-rule="evenodd" d="M133.276 288.994C109.794 294.928 23.9027 305.658 18.0085 307.341C11.9451 309.072 6.62877 296.574 14.1234 293.867C26.0485 289.559 58.9078 279.606 78.8305 275.544C94.8551 272.277 109.478 269.611 119.295 268.05C118.463 240.473 114.661 174.294 117.153 160H168.319C165.929 173.707 145.729 273.718 141.974 283.729C140.783 287.302 137.228 288.882 133.276 288.994Z" fill="#D4A181"/>
<path fill-rule="evenodd" clip-rule="evenodd" d="M14.6677 290.539C11.5323 289.956 9.23453 289.793 7.77438 290.05C5.99849 290.363 3.45919 291.116 0.156483 292.309C0.519744 294.369 3.78443 312.884 9.95055 347.854C14.9769 348.456 17.4062 347.168 17.2383 343.991C17.0705 340.814 16.9585 338.17 16.9024 336.059L23.8595 308.213C23.9933 307.677 23.6675 307.134 23.1317 307C23.1225 306.998 23.1133 306.996 23.1041 306.994L18.786 306.044C16.9351 303.402 15.851 301.181 15.5336 299.381C15.2758 297.919 15.5103 295.795 16.2371 293.01C16.5161 291.941 15.8758 290.849 14.807 290.57C14.761 290.558 14.7145 290.548 14.6677 290.539Z" fill="#E4E4E4"/>
<path fill-rule="evenodd" clip-rule="evenodd" d="M210.997 384.402C209.878 387.388 209.319 389.623 209.319 391.106C209.319 392.909 209.619 395.54 210.22 399C212.312 399 231.113 399 266.622 399C268.088 394.154 267.242 391.539 264.084 391.152C260.926 390.766 258.303 390.417 256.214 390.106L229.999 378.419C229.494 378.194 228.903 378.421 228.678 378.925C228.674 378.934 228.671 378.942 228.667 378.951L226.982 383.039C224.059 384.403 221.683 385.085 219.856 385.085C218.371 385.085 216.32 384.485 213.703 383.285C212.699 382.825 211.512 383.266 211.052 384.27C211.032 384.313 211.014 384.357 210.997 384.402Z" fill="#E4E4E4"/>
<path fill-rule="evenodd" clip-rule="evenodd" d="M117.319 160C139.866 153.549 161.199 153.549 181.319 160C188.319 191.937 205.328 204.613 208.319 253.579C174.319 270.473 132.319 241.53 97.3187 258.005C87.3187 234.961 101.319 179.464 117.319 160Z" fill="#2B44FF"/>
<path fill-rule="evenodd" clip-rule="evenodd" d="M214.319 120.311L253.802 114.925C261.7 110.532 268.966 107.558 275.599 106.003C277.466 105.948 280.436 106.627 276.012 110.315C271.588 114.003 267.099 118.083 267.887 120.051C268.675 122.02 272.79 121.287 273.471 124.315C273.926 126.333 267.248 126.661 253.44 125.299L221.403 138L214.319 120.311ZM90.2885 129.45L112.186 129.532C88.1748 183.566 75.655 211.857 74.6266 214.406C72.3127 220.14 77.2093 228.874 79.3033 233.567C72.4832 236.619 73.2099 225.317 64.6066 229.319C56.7539 232.973 50.7804 239.592 41.7077 233.994C40.5923 233.306 39.37 230.715 42.3233 228.69C49.681 223.645 60.284 214.815 61.7166 211.908C63.6703 207.945 73.1942 180.459 90.2885 129.45Z" fill="#D4A181"/>
<path fill-rule="evenodd" clip-rule="evenodd" d="M150.268 60L167.413 61.1422C171.635 99.3434 194.635 123.473 246.13 115.304L252.971 164.499C204.841 170.719 162.632 151.45 153.981 99.2785C151.742 85.7729 149.973 71.7178 150.268 60Z" fill="#AFB9C5"/>
<path fill-rule="evenodd" clip-rule="evenodd" d="M141.809 55.0159L167.786 60.9653C167.786 105.644 182.019 134.15 189.319 167H119.162C118.174 178.351 117.567 190.018 117.251 202H64.7202C76.6239 138.664 101.749 89.664 140.094 55H141.796L141.809 55.0159Z" fill="#C5CFD6"/>
<path fill-rule="evenodd" clip-rule="evenodd" d="M130.231 103.259C128.423 131.101 129.486 152.347 133.421 167H119.162C121.12 144.514 124.575 123.267 130.231 103.259Z" fill="black" fill-opacity="0.1"/>
</svg>
