<svg width="95" height="95" viewBox="0 0 95 95" fill="none" xmlns="http://www.w3.org/2000/svg">
<path d="M66.7001 28.2002C65.2001 26.7002 62.7001 26.7002 61.2001 28.2002L47.4001 42.0002L33.6001 28.2002C32.1001 26.7002 29.6001 26.7002 28.1001 28.2002C26.6001 29.7002 26.6001 32.2002 28.1001 33.7002L41.9001 47.5002L28.1001 61.3002C26.6001 62.8002 26.6001 65.3002 28.1001 66.8002C28.9001 67.6002 29.9001 67.9002 30.9001 67.9002C31.9001 67.9002 32.9001 67.5002 33.7001 66.8002L47.5001 53.0002L61.3001 66.8002C62.1001 67.6002 63.1001 67.9002 64.1001 67.9002C65.1001 67.9002 66.1001 67.5002 66.9001 66.8002C68.4001 65.3002 68.4001 62.8002 66.9001 61.3002L53.1001 47.5002L66.9001 33.7002C68.2001 32.2002 68.2001 29.7002 66.7001 28.2002Z" fill="black"/>
<path d="M72.7 0H22.2C9.90001 0 0 10 0 22.2V72.7C0 85 10 94.9 22.2 94.9H72.7C85 94.9 94.9 84.9 94.9 72.7V22.2C94.9 10 84.9 0 72.7 0ZM88.6 72.8C88.6 81.6 81.4 88.8 72.6 88.8H22.1C13.3 88.8 6.10004 81.6 6.10004 72.8V22.3C6.10004 13.5 13.3 6.29999 22.1 6.29999H72.6C81.4 6.29999 88.6 13.5 88.6 22.3V72.8Z" fill="black"/>
</svg>
