<svg width="36" height="36" viewBox="0 0 36 36" fill="none" xmlns="http://www.w3.org/2000/svg">
<path d="M1.99204 0C1.4802 0 0.976308 0.20323 0.585788 0.59375C-0.195262 1.3748 -0.195262 2.6252 0.585788 3.40625L14.742 17.5625L0.585788 31.7187C-0.195262 32.4998 -0.195262 33.7502 0.585788 34.5313C1.36684 35.3123 2.61724 35.3123 3.39829 34.5313L17.5545 20.375L31.7107 34.5313C32.4918 35.3123 33.7422 35.3123 34.5233 34.5313C35.3043 33.7502 35.3043 32.4998 34.5233 31.7187L20.367 17.5625L34.5233 3.40625C35.3043 2.6252 35.3043 1.3748 34.5233 0.59375C34.1327 0.20323 33.6288 0 33.117 0C32.6052 0 32.1013 0.20323 31.7107 0.59375L17.5545 14.75L3.39829 0.59375C3.00777 0.20323 2.50388 0 1.99204 0Z" fill="black"/>
</svg>
