<svg width="232" height="39" viewBox="0 0 232 39" fill="none" xmlns="http://www.w3.org/2000/svg">
<path d="M5.87784 21.8068V38H0.568892V1.63636H5.80682V15.1662H6.14418C6.78338 13.6984 7.75994 12.5324 9.07386 11.6683C10.3878 10.8042 12.1042 10.3722 14.223 10.3722C16.0933 10.3722 17.7268 10.7569 19.1236 11.5263C20.5322 12.2957 21.6212 13.4439 22.3906 14.9709C23.1719 16.486 23.5625 18.38 23.5625 20.6527V38H18.2536V21.2919C18.2536 19.2914 17.7386 17.7408 16.7088 16.6399C15.679 15.5272 14.2467 14.9709 12.4119 14.9709C11.1572 14.9709 10.0327 15.2372 9.03835 15.7699C8.05587 16.3026 7.28054 17.0838 6.71236 18.1136C6.15601 19.1316 5.87784 20.3627 5.87784 21.8068ZM42.1349 38.5504C39.5781 38.5504 37.3468 37.9645 35.4411 36.7926C33.5353 35.6207 32.0556 33.9813 31.0021 31.8743C29.9486 29.7673 29.4219 27.3052 29.4219 24.4879C29.4219 21.6589 29.9486 19.1849 31.0021 17.0661C32.0556 14.9472 33.5353 13.3018 35.4411 12.13C37.3468 10.9581 39.5781 10.3722 42.1349 10.3722C44.6918 10.3722 46.9231 10.9581 48.8288 12.13C50.7346 13.3018 52.2143 14.9472 53.2678 17.0661C54.3213 19.1849 54.848 21.6589 54.848 24.4879C54.848 27.3052 54.3213 29.7673 53.2678 31.8743C52.2143 33.9813 50.7346 35.6207 48.8288 36.7926C46.9231 37.9645 44.6918 38.5504 42.1349 38.5504ZM42.1527 34.0938C43.8099 34.0938 45.183 33.6558 46.272 32.7798C47.361 31.9039 48.166 30.7379 48.6868 29.282C49.2195 27.826 49.4858 26.2221 49.4858 24.4702C49.4858 22.7301 49.2195 21.1321 48.6868 19.6761C48.166 18.2083 47.361 17.0305 46.272 16.1428C45.183 15.255 43.8099 14.8111 42.1527 14.8111C40.4837 14.8111 39.0987 15.255 37.9979 16.1428C36.9089 17.0305 36.098 18.2083 35.5653 19.6761C35.0445 21.1321 34.7841 22.7301 34.7841 24.4702C34.7841 26.2221 35.0445 27.826 35.5653 29.282C36.098 30.7379 36.9089 31.9039 37.9979 32.7798C39.0987 33.6558 40.4837 34.0938 42.1527 34.0938ZM60.774 38V10.7273H65.9054V15.0597H66.1895C66.6866 13.5919 67.5626 12.4377 68.8173 11.5973C70.0839 10.745 71.5162 10.3189 73.1142 10.3189C73.4456 10.3189 73.8362 10.3307 74.286 10.3544C74.7477 10.3781 75.1087 10.4077 75.3691 10.4432V15.5213C75.1561 15.4621 74.7773 15.397 74.2328 15.326C73.6883 15.2431 73.1438 15.2017 72.5993 15.2017C71.3445 15.2017 70.2259 15.468 69.2434 16.0007C68.2728 16.5215 67.5034 17.2495 66.9352 18.1847C66.367 19.108 66.0829 20.1615 66.0829 21.3452V38H60.774ZM79.9634 38V10.7273H85.2724V38H79.9634ZM82.6445 6.51918C81.7212 6.51918 80.9281 6.21141 80.2653 5.59588C79.6142 4.96851 79.2887 4.22277 79.2887 3.35866C79.2887 2.48272 79.6142 1.73698 80.2653 1.12145C80.9281 0.49408 81.7212 0.180397 82.6445 0.180397C83.5678 0.180397 84.355 0.49408 85.006 1.12145C85.6689 1.73698 86.0004 2.48272 86.0004 3.35866C86.0004 4.22277 85.6689 4.96851 85.006 5.59588C84.355 6.21141 83.5678 6.51918 82.6445 6.51918ZM91.8464 38V34.3601L106.619 15.5923V15.3438H92.3258V10.7273H113.242V14.598L99.0375 33.1349V33.3835H113.739V38H91.8464ZM130.709 38.5504C128.152 38.5504 125.921 37.9645 124.015 36.7926C122.109 35.6207 120.63 33.9813 119.576 31.8743C118.523 29.7673 117.996 27.3052 117.996 24.4879C117.996 21.6589 118.523 19.1849 119.576 17.0661C120.63 14.9472 122.109 13.3018 124.015 12.13C125.921 10.9581 128.152 10.3722 130.709 10.3722C133.266 10.3722 135.497 10.9581 137.403 12.13C139.309 13.3018 140.788 14.9472 141.842 17.0661C142.895 19.1849 143.422 21.6589 143.422 24.4879C143.422 27.3052 142.895 29.7673 141.842 31.8743C140.788 33.9813 139.309 35.6207 137.403 36.7926C135.497 37.9645 133.266 38.5504 130.709 38.5504ZM130.727 34.0938C132.384 34.0938 133.757 33.6558 134.846 32.7798C135.935 31.9039 136.74 30.7379 137.261 29.282C137.794 27.826 138.06 26.2221 138.06 24.4702C138.06 22.7301 137.794 21.1321 137.261 19.6761C136.74 18.2083 135.935 17.0305 134.846 16.1428C133.757 15.255 132.384 14.8111 130.727 14.8111C129.058 14.8111 127.673 15.255 126.572 16.1428C125.483 17.0305 124.672 18.2083 124.14 19.6761C123.619 21.1321 123.358 22.7301 123.358 24.4702C123.358 26.2221 123.619 27.826 124.14 29.282C124.672 30.7379 125.483 31.9039 126.572 32.7798C127.673 33.6558 129.058 34.0938 130.727 34.0938ZM154.657 21.8068V38H149.348V10.7273H154.444V15.1662H154.781C155.409 13.7221 156.391 12.562 157.729 11.6861C159.078 10.8101 160.777 10.3722 162.825 10.3722C164.683 10.3722 166.311 10.7628 167.708 11.544C169.104 12.3134 170.187 13.4616 170.957 14.9886C171.726 16.5156 172.111 18.4036 172.111 20.6527V38H166.802V21.2919C166.802 19.3151 166.287 17.7704 165.257 16.6577C164.227 15.5331 162.813 14.9709 161.014 14.9709C159.783 14.9709 158.688 15.2372 157.729 15.7699C156.782 16.3026 156.03 17.0838 155.474 18.1136C154.929 19.1316 154.657 20.3627 154.657 21.8068ZM191.962 10.7273V14.9886H177.065V10.7273H191.962ZM181.06 4.19318H186.369V29.9922C186.369 31.022 186.523 31.7973 186.83 32.3182C187.138 32.8272 187.535 33.1764 188.02 33.3658C188.517 33.5433 189.056 33.6321 189.636 33.6321C190.062 33.6321 190.435 33.6025 190.754 33.5433C191.074 33.4841 191.323 33.4368 191.5 33.4013L192.459 37.7869C192.151 37.9053 191.713 38.0237 191.145 38.142C190.577 38.2723 189.867 38.3433 189.014 38.3551C187.618 38.3788 186.316 38.1302 185.108 37.6094C183.901 37.0885 182.924 36.2836 182.178 35.1946C181.433 34.1056 181.06 32.7384 181.06 31.093V4.19318ZM205.771 38.6037C204.043 38.6037 202.481 38.2841 201.084 37.6449C199.687 36.9938 198.58 36.0528 197.763 34.8217C196.959 33.5907 196.556 32.0814 196.556 30.294C196.556 28.7552 196.852 27.4886 197.444 26.4943C198.036 25.5 198.835 24.7128 199.841 24.1328C200.847 23.5528 201.972 23.1148 203.214 22.8189C204.457 22.523 205.724 22.2981 207.014 22.1442C208.648 21.9548 209.973 21.8009 210.991 21.6825C212.009 21.5523 212.749 21.3452 213.211 21.0611C213.673 20.777 213.903 20.3153 213.903 19.6761V19.5518C213.903 18.0012 213.465 16.7997 212.589 15.9474C211.725 15.0952 210.435 14.669 208.719 14.669C206.931 14.669 205.523 15.0656 204.493 15.8587C203.475 16.6399 202.771 17.5099 202.38 18.4688L197.391 17.3324C197.982 15.6752 198.847 14.3376 199.983 13.3196C201.131 12.2898 202.451 11.544 203.942 11.0824C205.434 10.6089 207.002 10.3722 208.648 10.3722C209.737 10.3722 210.891 10.5024 212.11 10.7628C213.341 11.0114 214.489 11.473 215.555 12.1477C216.632 12.8224 217.514 13.7872 218.2 15.0419C218.887 16.2848 219.23 17.9006 219.23 19.8892V38H214.045V34.2713H213.832C213.489 34.9579 212.974 35.6326 212.288 36.2955C211.601 36.9583 210.719 37.5088 209.642 37.9467C208.565 38.3847 207.275 38.6037 205.771 38.6037ZM206.925 34.3423C208.393 34.3423 209.648 34.0523 210.69 33.4723C211.743 32.8923 212.542 32.1347 213.087 31.1996C213.643 30.2526 213.921 29.2405 213.921 28.1634V24.6477C213.732 24.8371 213.365 25.0147 212.82 25.1804C212.288 25.3343 211.678 25.4704 210.991 25.5888C210.305 25.6953 209.636 25.7959 208.985 25.8906C208.334 25.9735 207.79 26.0445 207.352 26.1037C206.322 26.2339 205.381 26.4529 204.528 26.7607C203.688 27.0684 203.013 27.5123 202.504 28.0923C202.007 28.6605 201.759 29.4181 201.759 30.3651C201.759 31.679 202.244 32.6733 203.214 33.348C204.185 34.0109 205.422 34.3423 206.925 34.3423ZM231.61 1.63636V38H226.301V1.63636H231.61Z" fill="black"/>
</svg>
