<svg width="100" height="100" viewBox="0 0 100 100" fill="none" xmlns="http://www.w3.org/2000/svg">
<path fill-rule="evenodd" clip-rule="evenodd" d="M100 0H0V100H100V0ZM42.8779 68V51.8069C42.8779 50.3628 43.156 49.1316 43.7124 48.1135C44.2805 47.0837 45.0559 46.3025 46.0383 45.7698C47.0327 45.2373 48.1572 44.9709 49.4119 44.9709C51.2466 44.9709 52.679 45.5273 53.7087 46.6399C54.7385 47.7407 55.2537 49.2915 55.2537 51.292V68H60.5625V50.6526C60.5625 48.3799 60.1719 46.4861 59.3906 44.9709C58.6211 43.4438 57.5322 42.2957 56.1235 41.5264C54.7268 40.7568 53.0933 40.3721 51.2229 40.3721C49.1042 40.3721 47.3877 40.8042 46.074 41.6682C44.76 42.5325 43.7834 43.6985 43.1443 45.1663H42.8069V31.6365H37.5688V68H42.8779Z" fill="black"/>
</svg>
