<svg width="315" height="315" viewBox="0 0 315 315" fill="none" xmlns="http://www.w3.org/2000/svg">
<path d="M40.8 0H103.32C114.55 0 124.75 4.59 132.14 11.98C139.53 19.37 144.11 29.57 144.11 40.8V103.32C144.11 114.55 139.52 124.75 132.14 132.14C124.75 139.53 114.55 144.11 103.32 144.11H40.8C29.57 144.11 19.37 139.52 11.98 132.14C4.59 124.75 0 114.55 0 103.32V40.8C0 29.57 4.59 19.37 11.98 11.98C19.37 4.59 29.57 0 40.8 0ZM211.52 170.72H274.04C285.27 170.72 295.47 175.31 302.86 182.7C310.25 190.09 314.84 200.29 314.84 211.52V274.04C314.84 285.27 310.25 295.47 302.86 302.86C295.47 310.25 285.27 314.84 274.04 314.84H211.52C200.29 314.84 190.09 310.25 182.7 302.86C175.31 295.47 170.73 285.27 170.73 274.04V211.52C170.73 200.29 175.32 190.09 182.7 182.7C190.09 175.31 200.29 170.72 211.52 170.72ZM274.04 187.39H211.52C204.89 187.39 198.86 190.11 194.48 194.48C190.1 198.86 187.39 204.89 187.39 211.52V274.04C187.39 280.67 190.11 286.7 194.48 291.08C198.86 295.46 204.89 298.17 211.52 298.17H274.04C280.67 298.17 286.7 295.45 291.08 291.08C295.46 286.7 298.17 280.67 298.17 274.04V211.52C298.17 204.89 295.45 198.86 291.08 194.48C286.7 190.1 280.67 187.39 274.04 187.39ZM40.8 170.72H103.32C114.55 170.72 124.75 175.31 132.14 182.7C139.53 190.09 144.11 200.29 144.11 211.52V274.04C144.11 285.27 139.52 295.47 132.14 302.86C124.75 310.25 114.55 314.84 103.32 314.84H40.8C29.57 314.84 19.37 310.25 11.98 302.86C4.59 295.47 0 285.27 0 274.04V211.52C0 200.29 4.59 190.09 11.98 182.7C19.37 175.31 29.57 170.72 40.8 170.72ZM103.32 187.39H40.8C34.17 187.39 28.14 190.11 23.76 194.48C19.38 198.86 16.67 204.89 16.67 211.52V274.04C16.67 280.67 19.39 286.7 23.76 291.08C28.13 295.46 34.17 298.17 40.8 298.17H103.32C109.95 298.17 115.98 295.45 120.36 291.08C124.74 286.7 127.45 280.67 127.45 274.04V211.52C127.45 204.89 124.73 198.86 120.36 194.48C115.98 190.1 109.95 187.39 103.32 187.39ZM211.52 0H274.04C285.27 0 295.47 4.59 302.86 11.98C310.25 19.37 314.84 29.57 314.84 40.8V103.32C314.84 114.55 310.25 124.75 302.86 132.14C295.47 139.53 285.27 144.11 274.04 144.11H211.52C200.29 144.11 190.09 139.52 182.7 132.14C175.31 124.75 170.73 114.55 170.73 103.32V40.8C170.73 29.57 175.32 19.37 182.7 11.98C190.09 4.59 200.29 0 211.52 0ZM274.04 16.67H211.52C204.89 16.67 198.86 19.39 194.48 23.76C190.1 28.13 187.39 34.17 187.39 40.8V103.32C187.39 109.95 190.11 115.98 194.48 120.36C198.86 124.74 204.89 127.45 211.52 127.45H274.04C280.67 127.45 286.7 124.73 291.08 120.36C295.46 115.98 298.17 109.95 298.17 103.32V40.8C298.17 34.17 295.45 28.14 291.08 23.76C286.7 19.38 280.67 16.67 274.04 16.67ZM103.32 16.67H40.8C34.17 16.67 28.14 19.39 23.76 23.76C19.38 28.13 16.67 34.17 16.67 40.8V103.32C16.67 109.95 19.39 115.98 23.76 120.36C28.13 124.74 34.17 127.45 40.8 127.45H103.32C109.95 127.45 115.98 124.73 120.36 120.36C124.74 115.98 127.45 109.95 127.45 103.32V40.8C127.45 34.17 124.73 28.14 120.36 23.76C115.98 19.38 109.95 16.67 103.32 16.67Z" fill="black"/>
</svg>
