<svg width="2096" height="865" viewBox="0 0 2096 865" fill="none" xmlns="http://www.w3.org/2000/svg">
<path d="M140.911 138.8C115.226 178.003 287.303 201.522 299.347 202.614C480.695 219.058 670.627 200.509 845.071 147.602C894.364 132.652 957.463 114.651 994.076 75.2997C1017.28 50.3587 1012.06 26.008 979.301 14.9432C920.917 -4.775 853.52 0.887871 795.088 16.515C706.031 40.3326 619.458 83.2294 540.459 129.998C498.854 154.628 445.29 187.055 427.291 235.622C412.976 274.246 436.75 307.32 470.043 325.528C519.559 352.609 583.418 353.848 638.224 354.763C693.14 355.68 749.422 352.076 802.947 339.045C803.478 338.916 860.744 325.66 849.472 311.382C844.641 305.263 823.541 299.683 819.922 298.808C797.838 293.463 766.152 289.095 744.162 287.491C675.589 282.488 605.871 288.953 537.944 298.179C439.735 311.517 342.219 332.332 247.793 362.622C187.213 382.055 126.894 406.192 75.8394 444.984C50.4255 464.293 -1.19536 503.09 2.27984 541.491C5.08951 572.538 50.4817 593.832 74.2676 603.419C124.4 623.626 181.522 628.377 234.904 631.397C348.791 637.84 468.477 625.134 572.523 575.756C634.798 546.202 685.278 498.303 746.049 466.674C775.631 451.277 805.981 448.352 824.323 480.82C839.389 507.488 842.705 538.651 834.697 567.897C832.993 574.123 830.813 576.499 835.326 570.412C846.453 555.403 860.703 541.78 875.249 530.174C904.678 506.694 943.862 495.395 977.101 518.543C997.737 532.914 1012.6 556.159 1040.6 554.065C1060.85 552.552 1081.64 535.604 1102.22 540.234C1111.13 542.239 1116.71 549.834 1123.91 554.694C1134.86 562.091 1147.94 564.661 1161 564.754C1188.4 564.948 1211.62 554.376 1232.99 538.348C1246.32 528.347 1248.55 553.349 1262.22 556.895C1316.18 570.884 1388.52 536.852 1434.49 513.199C1482.94 488.269 1527.68 456.036 1569.35 421.092C1602.76 393.075 1638.17 362.301 1663.66 326.471C1668.93 319.061 1682.39 297.634 1666.49 291.892C1645.06 284.154 1615.52 304.094 1599.53 315.154C1565.14 338.941 1536.95 369.905 1515.91 406.003C1498.94 435.108 1474.63 477.907 1483.53 513.513C1504.87 598.874 1625.76 595.321 1691.01 586.13C1769.48 575.075 1839.06 545.391 1909.48 511.313C1910.28 510.929 1885.82 544.061 1886.85 555.323C1891.06 601.145 1994.85 565.491 2013.85 557.209C2039.73 545.928 2066.11 530.934 2085.52 510.055C2088.71 506.629 2096.36 494.811 2093.38 498.424C2054.06 546.228 2039.07 609.125 2012.28 663.776C1970.33 749.335 1910.59 817.962 1827.12 863.078" stroke="white" stroke-width="3" stroke-linecap="round"/>
</svg>
