<svg width="2638" height="604" viewBox="0 0 2638 604" fill="none" xmlns="http://www.w3.org/2000/svg">
<path d="M545.96 282.002C533.756 278.341 530.232 256.343 529.346 246.342C524.68 193.684 550.515 140.216 585.47 102.083C618.927 65.5845 648.239 87.1177 685.357 107.351C808.522 174.49 948.086 209.324 1087.74 220.408C1240.15 232.504 1404.39 210.266 1546.66 153.749C1588.72 137.041 1633.86 115.951 1664.78 81.4171C1681.94 62.2408 1699.36 25.2096 1665.99 10.9085C1626.19 -6.15098 1571.7 4.829 1532.68 14.5555C1414.32 44.0573 1304.42 103.854 1200.19 165.501C992.712 288.214 798.115 437.463 571.489 524.73C434.296 577.559 262.994 626.72 115.615 587.134C73.4158 575.8 30.6204 552.157 11.27 510.952C-20.0998 444.153 34.1142 387.224 84.8178 351.092C227.42 249.474 395.325 236.755 556.496 298.616C617.045 321.856 671.593 355.878 726.689 389.386C803.89 436.336 882.037 476.373 970.836 496.77C1151.11 538.178 1345.48 478.496 1503.09 390.196C1571.73 351.744 1643.13 306 1695.98 246.748C1724.12 215.197 1756.58 159.341 1718.06 121.939C1689.48 94.1793 1639.77 86.4002 1601.97 86.685C1493.04 87.5055 1383.36 140.813 1287.11 185.559C1107.8 268.923 934.287 369.374 766.199 473.469C740.858 489.162 715.65 507.071 689.004 520.678C682.534 523.981 699.044 510.032 705.01 505.887C802.808 437.943 922.545 388.299 1039.12 365.072C1081.3 356.667 1126.59 351.915 1168.79 363.046C1210.53 374.059 1239.42 402.319 1267.66 433.15C1323.54 494.159 1387.95 532.896 1471.89 542.154C1572.11 553.208 1683.53 536.359 1778.24 502.848C1816.01 489.484 1937.74 429.804 1851.38 390.196C1748.21 342.875 1603.96 360.994 1499.85 395.869C1473.97 404.54 1432.18 418.35 1419.01 445.914C1401.14 483.322 1470.67 493.058 1490.74 495.351C1569.2 504.319 1652.48 488.352 1723.94 455.64C1739.92 448.323 1758.93 439.489 1771.76 426.666C1779.87 418.554 1765.36 426.079 1764.46 426.666C1739.19 443.266 1727.2 465.004 1760.82 480.358C1822.19 508.394 1896.21 490.863 1959.37 479.75C2020.48 469 2065.23 467.291 2122.88 492.515C2198.44 525.573 2273.24 545.743 2355.68 551.88C2427.07 557.194 2498.45 562.715 2569.84 568.089C2593.4 569.862 2616.59 567.416 2635.69 581.056" stroke="white" stroke-width="3" stroke-linecap="round"/>
</svg>
