<svg width="2140" height="483" viewBox="0 0 2140 483" fill="none" xmlns="http://www.w3.org/2000/svg">
<path d="M2.18115 480.941C10.5665 406.235 46.8995 331.684 90.2011 271.265C146.5 192.711 224.91 115.118 315.909 77.9356C365.032 57.8639 417.957 68.12 407.702 132.005C395.955 205.181 349.707 279.669 304.435 336.966C301.748 340.367 289.791 354.674 295.791 338.538C305.51 312.396 320.398 287.256 334.771 263.563C388.943 174.265 460.399 100.768 546.648 41.7846C563.896 29.9886 661.381 -33.9609 656.672 31.0964C653.907 69.3079 632.629 108.312 614.549 140.807C585.936 192.232 550.352 239.385 510.496 282.582C491.216 303.479 470.621 325.448 446.996 341.681C439.222 347.023 429.842 350.969 434.894 337.437C458.893 273.155 521.388 215.315 574.625 175.386C608.526 149.961 645.829 127.165 684.336 109.371C700.538 101.884 731.152 86.4132 750.194 96.3255C790.918 117.524 701.084 242.717 689.366 262.778C687.498 265.974 631.939 354.674 653.215 356.142C666.825 357.08 686.27 342.894 696.439 336.809C720.041 322.683 741.743 304.773 765.911 291.698C797.273 274.732 778.109 316.847 788.702 316.847" stroke="white" stroke-width="3" stroke-linecap="round"/>
<path d="M859.433 141.436C871.157 124.977 881.368 109.912 884.896 90.5098" stroke="white" stroke-width="3" stroke-linecap="round"/>
<path d="M1040.5 237.629C1037.51 207.706 979.95 225.857 966.943 230.713C931.735 243.858 891.704 262.911 866.977 292.327C858.77 302.091 848.195 326.356 871.064 325.02C915.505 322.425 962.652 286.7 996.964 262.778C1059.98 218.845 1114.21 165.896 1169.07 112.515C1193.87 88.3842 1220.23 54.2441 1250.18 35.8118C1268.38 24.61 1239.97 77.8907 1229.43 96.4827C1172.56 196.771 1101.06 284.585 1019.75 365.887C989.944 395.697 1086.31 313.651 1122.86 292.641C1152.78 275.448 1143.79 302.336 1152.1 324.077C1162.56 351.427 1194.82 345.442 1217.17 339.481C1229.83 336.105 1236.78 336.522 1250.65 336.18C1266.87 335.779 1397.86 318.1 1384.25 286.354C1377.62 270.87 1315.24 295.714 1367.75 310.717C1417.18 324.841 1474.95 317.286 1524.3 307.416C1590.67 294.143 1664.67 273.524 1717.47 228.984C1741.51 208.708 1775.33 161.143 1734.29 137.663C1686.49 110.324 1617.5 138.647 1573.34 158.411C1540.22 173.232 1513.1 187.225 1483.59 208.394C1460.17 225.187 1423.77 253.326 1421.82 286.354C1418.41 343.861 1535.31 347.954 1567.36 350.798C1747.88 366.811 1928.45 337.873 2109 346.711C2118.87 347.194 2143.63 349.158 2136.98 356.456C2132.77 361.071 2126.25 364.029 2121.26 367.773" stroke="white" stroke-width="3" stroke-linecap="round"/>
</svg>
