<svg width="1542" height="659" viewBox="0 0 1542 659" fill="none" xmlns="http://www.w3.org/2000/svg">
<path d="M399.173 95.9057C415.662 87.4422 437.996 78.0008 441.423 56.717C446.584 24.6629 401.001 16.2114 380.191 12.0174C330.323 1.96725 267.942 -2.77197 217.313 8.9558C178.312 17.9898 212.931 59.0221 226.498 76.3113C284.686 150.468 361.515 222.171 361.515 323.996C361.515 414.957 290.104 478.801 206.903 500.804C146.824 516.693 51.5221 514.042 13.1032 455.645C-27.8071 393.462 59.2337 345.44 109.544 339.151C147.834 334.365 180.89 345.694 213.945 364.409C252.369 386.165 293.112 414.315 322.939 447.379C331.333 456.685 341.543 480.017 357.535 475.852C382.322 469.397 402.187 453.752 428.87 452.584C444.31 451.908 472.563 450.058 443.872 431.765C410.116 410.242 368.009 427.167 339.931 449.981C329.555 458.411 305.248 485.666 330.44 494.222C357.203 503.311 396.008 483.446 419.073 472.025C439.391 461.965 470.96 448.313 481.836 426.56" stroke="white" stroke-width="3" stroke-linecap="round"/>
<path d="M556.234 404.516C558.363 403.482 579.763 391.96 581.339 396.556C583.598 403.145 571.167 420.497 569.245 423.652C548.871 457.101 525.129 489.015 498.216 517.49C449.843 568.672 387.827 625.056 322.326 653.426C321.389 653.832 304.097 662.374 306.253 653.273C312.203 628.151 351.342 601.612 368.863 588.06C473.54 507.092 597.92 440.074 725.847 404.823C769.981 392.661 816.208 383.23 862.089 381.554C879.013 380.936 927.131 378.841 936.945 399.924C961.977 453.696 676.625 520.07 750.493 388.749C793.712 311.915 890.306 263.602 973.072 244.7C1020.52 233.865 1179.04 220.432 1149.57 314.199C1140.07 344.426 1114.86 371.531 1094.16 394.26C1067.42 423.622 1037.91 449.396 1007.36 474.627C1006.23 475.564 985.102 490.332 985.472 495.14C985.593 496.711 1029.52 478.317 1029.56 478.301C1053.02 469.002 1103.61 443.096 1129.98 457.482C1139.19 462.504 1139.47 477.521 1149.88 480.444C1166.15 485.012 1189.67 474.569 1206.06 472.178C1218.68 470.338 1226.49 469.765 1236.83 462.381" stroke="white" stroke-width="3" stroke-linecap="round"/>
<path d="M1261.63 434.826C1272.36 424.095 1277.68 403.918 1289.18 396.25" stroke="white" stroke-width="3" stroke-linecap="round"/>
<path d="M1424.2 467.892C1432.54 467.25 1438.83 463.554 1438.13 453.808C1436.82 435.422 1411.14 429.637 1396.49 430.081C1380.94 430.552 1363.47 436.757 1351.64 447.073C1340.77 456.552 1341.77 463.424 1356.23 461.156C1368.6 459.216 1383.61 452.774 1396.19 456.105C1407.49 459.097 1412.55 472.592 1423.28 477.383C1445.86 487.464 1474.37 487.438 1498.6 486.568C1511.52 486.104 1528.19 481.49 1539.93 484.425" stroke="white" stroke-width="3" stroke-linecap="round"/>
</svg>
